<svg width="608" height="170" viewBox="0 0 608 170" fill="none" xmlns="http://www.w3.org/2000/svg">
<path d="M57.8394 169.198C89.4304 169.198 115.939 149.644 118.139 117.041C119.515 96.6979 109.938 83.9203 96.7722 71.4369C87.7008 62.8361 79.8413 53.1882 75.9586 42.4578C71.7465 30.8215 70.7346 17.8909 77.8176 1.05412C78.0529 0.5129 77.947 0.218756 77.6294 0.0658012C77.2646 -0.0989193 76.9705 0.0540326 76.5704 0.430537C60.8043 15.3848 47.9561 32.551 47.6973 53.0823C47.4855 69.5426 56.4275 80.6494 70.1228 90.8621C81.5709 99.404 92.8778 109.923 93.3131 125.548C93.619 136.866 88.8892 147.42 78.2647 155.291C65.5224 164.739 52.7448 166.681 39.3671 164.916C37.4258 164.657 37.0375 164.704 36.9081 165.139C36.7787 165.575 37.061 165.881 39.1436 166.516C45.0264 168.304 51.2741 169.199 57.8629 169.187L57.8394 169.198Z" fill="#00AAFF"/>
<path d="M7.81149 140.879C19.6361 157.999 38.8025 159.846 50.1564 154.551C62.3105 148.88 65.6755 135.997 64.5107 126.513C63.2164 115.948 55.3804 108.724 44.8383 102.405C34.4727 96.2048 29.3899 89.5572 28.0368 80.0269C25.0719 59.1662 39.932 34.9758 50.8153 21.6452C51.1801 21.1981 51.1448 20.8334 50.9212 20.6334C50.6035 20.351 50.1447 20.4922 49.6858 20.8569C32.9431 34.2817 17.8124 52.5892 7.52912 75.9442C-3.4248 100.817 -1.63641 127.208 7.81149 140.879Z" fill="#3237DD"/>
<path d="M307.108 154.761C304.214 154.761 296.778 154.255 290.272 149.537C284.189 145.125 281.106 138.583 281.106 130.1C281.106 114.216 295.284 103.133 315.592 103.133C319.145 103.133 323.004 103.38 327.063 103.874L329.028 104.11V100.721C329.028 87.8729 323.792 85.0374 314.756 84.4961C314.25 84.4608 313.733 84.4491 313.227 84.4491C305.779 84.4491 298.872 87.5082 294.237 90.2025L288.801 81.3429C296.637 75.6483 305.967 72.7657 316.533 72.7657C335.382 72.7657 345.347 83.2843 345.347 103.18V130.277L345.324 130.43V130.547C345.288 134.806 345.347 145.443 346.536 153.679H333.287C331.852 151.843 330.711 148.796 330.24 145.443L330.016 143.89L329.158 145.207C325.157 151.361 317.321 154.749 307.097 154.749L307.108 154.761ZM318.027 113.958C308.779 113.958 301.908 116.37 298.167 120.946C295.237 124.523 294.649 129.83 296.696 134.159C297.99 136.901 301.484 141.501 310.262 141.501C316.086 141.501 322.851 138.995 328.357 134.806L329.028 134.301V114.946L327.534 114.722C324.216 114.216 321.004 113.969 318.015 113.969L318.027 113.958Z" fill="#141E3C"/>
<path d="M178.733 46.317C187.651 46.317 199.876 49.5526 209.724 55.9531L202.747 67.0718C194.452 62.0243 185.863 59.3887 178.062 59.3887C168.626 59.3887 161.884 64.7422 161.884 72.5193C161.884 78.0257 164.873 82.1202 171.591 86.0852C173.062 87.0147 178.792 89.9562 190.887 95.0625C200.052 99.0511 206.723 103.51 210.712 108.311C214.783 113.205 216.595 118.394 216.595 125.112C216.595 133.878 213.218 141.043 206.547 146.408C199.77 151.868 190.816 154.644 179.933 154.644C167.708 154.644 153.542 150.926 145.247 145.573L152.319 133.772C161.166 138.808 169.744 141.361 177.874 141.361C183.651 141.361 188.428 140.161 192.063 137.784C196.075 135.172 197.864 129.995 197.864 126.018C197.864 120.618 194.887 116.594 188.216 112.958C183.333 110.44 176.991 107.405 169.344 103.922C160.519 100.134 153.872 95.6861 149.577 90.7209C145.389 85.8734 143.271 80.1671 143.271 73.7665C143.271 58.7534 155.954 46.2935 178.721 46.2935L178.733 46.317Z" fill="#141E3C"/>
<path d="M438.944 52.7074H422.143V153.552H438.944V52.7074Z" fill="#141E3C"/>
<path d="M361.867 153.608V98.7445C361.867 89.6848 364.314 84.4491 369.361 80.1075C373.256 76.7543 379.904 72.7657 389.457 72.7657C400.447 72.7657 406.377 75.3071 412.695 79.7075L407.365 89.0848C402.847 86.5551 398.164 85.2139 393.799 85.2139C385.022 85.2139 379.115 90.4967 379.115 98.3444L378.68 153.608H361.867Z" fill="#141E3C"/>
<path d="M492.725 154.822C481.088 154.822 471.476 151.045 464.134 143.586C456.804 136.138 453.086 126.043 453.086 113.571C453.086 101.099 456.533 91.6044 463.322 84.0273C470.076 76.4972 479.018 72.6733 489.913 72.6733C500.678 72.6733 509.291 76.3913 515.527 83.7214C521.821 91.122 525.01 101.582 525.01 114.807V116.265H470.57L470.793 118.289C471.641 126.008 474.453 132.42 478.7 136.338C483.43 140.691 489.819 142.891 497.69 142.891C502.537 142.891 507.455 141.903 512.338 139.95C513.056 139.668 513.797 139.338 514.633 138.926L519.304 148.292C511.644 152.622 502.714 154.822 492.737 154.822H492.725ZM490.748 83.8979C485.254 83.8979 480.535 86.0039 476.712 90.1573C473.664 93.4634 471.793 98.3227 470.993 104.994H509.444C508.867 100.064 507.114 93.4281 503.902 89.616C500.702 85.8275 496.278 83.9096 490.76 83.9096L490.748 83.8979Z" fill="#141E3C"/>
<path d="M545.906 170.001L559.413 141.186L531.046 76.8393H549.236L567.579 124.585L589.204 76.8393H607.076L561.272 170.001H545.906Z" fill="#141E3C"/>
<path d="M255.163 154.656C246.962 154.656 240.514 152.468 235.996 148.138C231.514 143.844 229.243 137.914 229.243 130.489V52.5414H245.962V76.6729H268.211V88.1916H245.962V129.195C245.962 133.101 247.197 136.337 249.633 138.796C252.057 141.243 255.363 142.491 259.469 142.491C262.375 142.491 265.564 141.89 268.941 140.714L273.447 150.703C266.999 153.327 260.846 154.656 255.163 154.656Z" fill="#141E3C"/>
</svg>
